<svg xmlns="http://www.w3.org/2000/svg" viewBox="0 0 64 64" role="img" aria-label="Plane favicon">
  <rect width="64" height="64" fill="#0f1720"/>
  <!-- Fuselage -->
  <path fill="#f5f2ea" stroke="#0f1720" stroke-width="1.1" d="M32 4C35 4 37 10 37 18L37 48C37 53 35 58 32 59 29 58 27 53 27 48L27 18C27 10 29 4 32 4Z"/>
  <!-- Wings -->
  <path fill="#f5f2ea" stroke="#0f1720" stroke-width="1.1" d="M27 21L4 31 6 35 27 29Z"/>
  <path fill="#f5f2ea" stroke="#0f1720" stroke-width="1.1" d="M37 21L60 31 58 35 37 29Z"/>
  <!-- Tail stabilizers -->
  <path fill="#f5f2ea" stroke="#0f1720" stroke-width="1.1" d="M28 45L15 50 17 53 28 49Z"/>
  <path fill="#f5f2ea" stroke="#0f1720" stroke-width="1.1" d="M36 45L49 50 47 53 36 49Z"/>
  <!-- Cockpit -->
  <ellipse cx="32" cy="13" rx="2.2" ry="3.5" fill="#c9652d"/>
</svg>
