<svg xmlns="http://www.w3.org/2000/svg" viewBox="0 0 64 64" role="img" aria-label="Plane favicon">
  <rect width="64" height="64" fill="#0f1720"/>
  <path
    fill="#f5f2ea"
    stroke="#0f1720"
    stroke-width="1.1"
    d="M32 5C36 8 38 16 38 24V40L44 49V53L35 48L33 58H31L29 48L20 53V49L26 40V24C26 16 28 8 32 5Z"
  />
  <path fill="#f5f2ea" stroke="#0f1720" stroke-width="1.1" d="M26 22 8 27V31L26 30Z"/>
  <path fill="#f5f2ea" stroke="#0f1720" stroke-width="1.1" d="M38 22 56 27V31L38 30Z"/>
  <path fill="#f5f2ea" stroke="#0f1720" stroke-width="1.1" d="M26 40 14 46V49L26 46Z"/>
  <path fill="#f5f2ea" stroke="#0f1720" stroke-width="1.1" d="M38 40 50 46V49L38 46Z"/>
  <circle cx="32" cy="11" r="2.2" fill="#c9652d"/>
</svg>
