<svg xmlns="http://www.w3.org/2000/svg" viewBox="0 0 1600 720" role="img" aria-label="Aviation Supply Console banner">
  <defs>
    <linearGradient id="bg" x1="0" x2="1" y1="0" y2="1">
      <stop offset="0%" stop-color="#0d141b"/>
      <stop offset="55%" stop-color="#13202a"/>
      <stop offset="100%" stop-color="#223140"/>
    </linearGradient>
    <linearGradient id="accent" x1="0" x2="1" y1="0" y2="0">
      <stop offset="0%" stop-color="#c9652d"/>
      <stop offset="100%" stop-color="#f1a15d"/>
    </linearGradient>
    <linearGradient id="glass" x1="0" x2="1" y1="0" y2="1">
      <stop offset="0%" stop-color="#ffffff" stop-opacity="0.07"/>
      <stop offset="100%" stop-color="#ffffff" stop-opacity="0.02"/>
    </linearGradient>
  </defs>
  <rect width="1600" height="720" fill="url(#bg)"/>
  <g opacity="0.35">
    <path d="M0 620h1600" stroke="#4a5d6d" stroke-width="2"/>
    <path d="M0 500h1600" stroke="#4a5d6d" stroke-width="2"/>
    <path d="M0 380h1600" stroke="#4a5d6d" stroke-width="2"/>
    <path d="M0 260h1600" stroke="#4a5d6d" stroke-width="2"/>
    <path d="M0 140h1600" stroke="#4a5d6d" stroke-width="2"/>
    <path d="M180 0v720" stroke="#4a5d6d" stroke-width="2"/>
    <path d="M420 0v720" stroke="#4a5d6d" stroke-width="2"/>
    <path d="M660 0v720" stroke="#4a5d6d" stroke-width="2"/>
    <path d="M900 0v720" stroke="#4a5d6d" stroke-width="2"/>
    <path d="M1140 0v720" stroke="#4a5d6d" stroke-width="2"/>
    <path d="M1380 0v720" stroke="#4a5d6d" stroke-width="2"/>
  </g>
  <path d="M78 586c200-68 364-154 489-328 65-90 141-168 218-218 110-74 224-117 385-151" fill="none" stroke="url(#accent)" stroke-width="18"/>
  <circle cx="1298" cy="154" r="13" fill="#f1a15d"/>
  <g transform="translate(1080 120)">
    <g transform="scale(5.2)">
      <!-- Fuselage -->
      <path fill="#f5f2ea" stroke="#0f1720" stroke-width="1.1" d="M32 4C35 4 37 10 37 18L37 48C37 53 35 58 32 59 29 58 27 53 27 48L27 18C27 10 29 4 32 4Z"/>
      <!-- Wings -->
      <path fill="#f5f2ea" stroke="#0f1720" stroke-width="1.1" d="M27 21L4 31 6 35 27 29Z"/>
      <path fill="#f5f2ea" stroke="#0f1720" stroke-width="1.1" d="M37 21L60 31 58 35 37 29Z"/>
      <!-- Tail stabilizers -->
      <path fill="#f5f2ea" stroke="#0f1720" stroke-width="1.1" d="M28 45L15 50 17 53 28 49Z"/>
      <path fill="#f5f2ea" stroke="#0f1720" stroke-width="1.1" d="M36 45L49 50 47 53 36 49Z"/>
      <!-- Cockpit -->
      <ellipse cx="32" cy="13" rx="2.2" ry="3.5" fill="#c9652d"/>
    </g>
  </g>
  <g transform="translate(88 106)">
    <text x="0" y="0" fill="#c9652d" font-size="28" font-family="Arial, Helvetica, sans-serif" letter-spacing="6">PRIVATE AVIATION SUPPLY INTELLIGENCE</text>
    <text x="0" y="110" fill="#f5f2ea" font-size="90" font-weight="700" font-family="Arial, Helvetica, sans-serif">Aviation Supply</text>
    <text x="0" y="214" fill="#f5f2ea" font-size="90" font-weight="700" font-family="Arial, Helvetica, sans-serif">Console</text>
    <text x="0" y="292" fill="#bcc9d3" font-size="26" font-family="Arial, Helvetica, sans-serif">FastAPI ops workspace for live OpenSky ingestion, route matching,</text>
    <text x="0" y="328" fill="#bcc9d3" font-size="26" font-family="Arial, Helvetica, sans-serif">airport supply intelligence, and charter-relevant aircraft state.</text>
  </g>
  <g transform="translate(88 470)">
    <rect width="308" height="118" fill="url(#glass)" stroke="#617485"/>
    <text x="28" y="42" fill="#c4d0d8" font-size="18" letter-spacing="2" font-family="Arial, Helvetica, sans-serif">LIVE COLLECTOR</text>
    <text x="28" y="86" fill="#f5f2ea" font-size="42" font-weight="700" font-family="Arial, Helvetica, sans-serif">OpenSky</text>
    <text x="28" y="108" fill="#c4d0d8" font-size="14" font-family="Arial, Helvetica, sans-serif">Anonymous or OAuth2 client credentials</text>
  </g>
  <g transform="translate(430 470)">
    <rect width="308" height="118" fill="url(#glass)" stroke="#617485"/>
    <text x="28" y="42" fill="#c4d0d8" font-size="18" letter-spacing="2" font-family="Arial, Helvetica, sans-serif">STATE ENGINE</text>
    <text x="28" y="86" fill="#f5f2ea" font-size="42" font-weight="700" font-family="Arial, Helvetica, sans-serif">Route Rank</text>
    <text x="28" y="108" fill="#c4d0d8" font-size="14" font-family="Arial, Helvetica, sans-serif">Idle time, proximity, availability</text>
  </g>
  <g transform="translate(772 470)">
    <rect width="308" height="118" fill="url(#glass)" stroke="#617485"/>
    <text x="28" y="42" fill="#c4d0d8" font-size="18" letter-spacing="2" font-family="Arial, Helvetica, sans-serif">SURFACES</text>
    <text x="28" y="86" fill="#f5f2ea" font-size="42" font-weight="700" font-family="Arial, Helvetica, sans-serif">Ops UI</text>
    <text x="28" y="108" fill="#c4d0d8" font-size="14" font-family="Arial, Helvetica, sans-serif">Overview, map, detail, JSON API</text>
  </g>
</svg>
