<svg xmlns="http://www.w3.org/2000/svg" viewBox="0 0 240 240" role="img" aria-label="Aviation Supply Console logo">
  <defs>
    <linearGradient id="sky" x1="0" x2="1" y1="0" y2="1">
      <stop offset="0%" stop-color="#0f1720"/>
      <stop offset="100%" stop-color="#1d2b36"/>
    </linearGradient>
    <linearGradient id="trail" x1="0" x2="1" y1="0" y2="0">
      <stop offset="0%" stop-color="#c9652d" stop-opacity="0.1"/>
      <stop offset="100%" stop-color="#c9652d"/>
    </linearGradient>
  </defs>
  <rect width="240" height="240" fill="url(#sky)"/>
  <path d="M24 171h192" stroke="#314453" stroke-width="2"/>
  <path d="M24 139h192" stroke="#314453" stroke-width="2"/>
  <path d="M24 107h192" stroke="#314453" stroke-width="2"/>
  <path d="M24 75h192" stroke="#314453" stroke-width="2"/>
  <path d="M56 24v192" stroke="#314453" stroke-width="2"/>
  <path d="M104 24v192" stroke="#314453" stroke-width="2"/>
  <path d="M152 24v192" stroke="#314453" stroke-width="2"/>
  <path d="M200 24v192" stroke="#314453" stroke-width="2"/>
  <path d="M38 168c41-10 74-34 99-70 16-24 31-42 61-58" fill="none" stroke="url(#trail)" stroke-width="10"/>
  <g transform="translate(68 22) scale(2.45)">
    <!-- Fuselage -->
    <path fill="#f4efe6" stroke="#0f1720" stroke-width="1.1" d="M32 4C35 4 37 10 37 18L37 48C37 53 35 58 32 59 29 58 27 53 27 48L27 18C27 10 29 4 32 4Z"/>
    <!-- Wings -->
    <path fill="#f4efe6" stroke="#0f1720" stroke-width="1.1" d="M27 21L4 31 6 35 27 29Z"/>
    <path fill="#f4efe6" stroke="#0f1720" stroke-width="1.1" d="M37 21L60 31 58 35 37 29Z"/>
    <!-- Tail stabilizers -->
    <path fill="#f4efe6" stroke="#0f1720" stroke-width="1.1" d="M28 45L15 50 17 53 28 49Z"/>
    <path fill="#f4efe6" stroke="#0f1720" stroke-width="1.1" d="M36 45L49 50 47 53 36 49Z"/>
    <!-- Cockpit -->
    <ellipse cx="32" cy="13" rx="2.2" ry="3.5" fill="#c9652d"/>
  </g>
  <circle cx="186" cy="48" r="7" fill="#c9652d"/>
</svg>
