<svg xmlns="http://www.w3.org/2000/svg" viewBox="0 0 240 240" role="img" aria-label="Aviation Supply Console logo">
  <defs>
    <linearGradient id="sky" x1="0" x2="1" y1="0" y2="1">
      <stop offset="0%" stop-color="#0f1720"/>
      <stop offset="100%" stop-color="#1d2b36"/>
    </linearGradient>
    <linearGradient id="trail" x1="0" x2="1" y1="0" y2="0">
      <stop offset="0%" stop-color="#c9652d" stop-opacity="0.1"/>
      <stop offset="100%" stop-color="#c9652d"/>
    </linearGradient>
  </defs>
  <rect width="240" height="240" fill="url(#sky)"/>
  <path d="M24 171h192" stroke="#314453" stroke-width="2"/>
  <path d="M24 139h192" stroke="#314453" stroke-width="2"/>
  <path d="M24 107h192" stroke="#314453" stroke-width="2"/>
  <path d="M24 75h192" stroke="#314453" stroke-width="2"/>
  <path d="M56 24v192" stroke="#314453" stroke-width="2"/>
  <path d="M104 24v192" stroke="#314453" stroke-width="2"/>
  <path d="M152 24v192" stroke="#314453" stroke-width="2"/>
  <path d="M200 24v192" stroke="#314453" stroke-width="2"/>
  <path d="M38 168c41-10 74-34 99-70 16-24 31-42 61-58" fill="none" stroke="url(#trail)" stroke-width="10"/>
  <g transform="translate(68 22) scale(2.45)">
    <path
      fill="#f4efe6"
      stroke="#0f1720"
      stroke-width="1.1"
      d="M32 5C36 8 38 16 38 24V40L44 49V53L35 48L33 58H31L29 48L20 53V49L26 40V24C26 16 28 8 32 5Z"
    />
    <path fill="#f4efe6" stroke="#0f1720" stroke-width="1.1" d="M26 22 8 27V31L26 30Z"/>
    <path fill="#f4efe6" stroke="#0f1720" stroke-width="1.1" d="M38 22 56 27V31L38 30Z"/>
    <path fill="#f4efe6" stroke="#0f1720" stroke-width="1.1" d="M26 40 14 46V49L26 46Z"/>
    <path fill="#f4efe6" stroke="#0f1720" stroke-width="1.1" d="M38 40 50 46V49L38 46Z"/>
    <circle cx="32" cy="11" r="2.2" fill="#c9652d"/>
  </g>
  <circle cx="186" cy="48" r="7" fill="#c9652d"/>
</svg>
